<svg version="1.2" xmlns="http://www.w3.org/2000/svg" viewBox="0 0 370 370" width="370" height="370">
	<title>crashino-logo</title>
	<defs>
		<linearGradient id="g1" x2="1" gradientUnits="userSpaceOnUse" gradientTransform="matrix(-61.07,279.18,-238.359,-52.141,215.64,61.11)">
			<stop offset="0" stop-color="#ff5bdf"/>
			<stop offset="1" stop-color="#4e23d5"/>
		</linearGradient>
		<linearGradient id="g2" x2="1" gradientUnits="userSpaceOnUse" gradientTransform="matrix(21.67,139.05,-139.05,21.67,329.01,248)">
			<stop offset="0" stop-color="#ff5bdf"/>
			<stop offset="1" stop-color="#4e23d5"/>
		</linearGradient>
		<linearGradient id="g3" x2="1" gradientUnits="userSpaceOnUse" gradientTransform="matrix(-79.82,304.13,-304.13,-79.82,205.11,58.58)">
			<stop offset="0" stop-color="#ff5bdf"/>
			<stop offset="1" stop-color="#4e23d5"/>
		</linearGradient>
		<linearGradient id="g4" x2="1" gradientUnits="userSpaceOnUse" gradientTransform="matrix(-79.81,304.13,-304.13,-79.81,76.01,24.7)">
			<stop offset="0" stop-color="#ff5bdf"/>
			<stop offset="1" stop-color="#4e23d5"/>
		</linearGradient>
		<linearGradient id="g5" x2="1" gradientUnits="userSpaceOnUse" gradientTransform="matrix(-2.45,151.31,-238.192,-3.857,166.37,-10.94)">
			<stop offset="0" stop-color="#ff5bdf"/>
			<stop offset="1" stop-color="#4e23d5"/>
		</linearGradient>
		<linearGradient id="g6" x2="1" gradientUnits="userSpaceOnUse" gradientTransform="matrix(-4.91,211.02,-135.158,-3.145,261.23,58.91)">
			<stop offset="0" stop-color="#ff5bdf"/>
			<stop offset="1" stop-color="#4e23d5"/>
		</linearGradient>
	</defs>
	<style>
		.s0 { fill: none } 
		.s1 { fill: url(#g1) } 
		.s2 { fill: url(#g2) } 
		.s3 { fill: url(#g3) } 
		.s4 { fill: url(#g4) } 
		.s5 { fill: #ffffff } 
		.s6 { opacity: .33;fill: url(#g5) } 
		.s7 { opacity: .33;fill: url(#g6) } 
	</style>
	<g>
		<g>
			<path class="s0" d="m118.6 133.7c0.4 12.2-8.1 22.9-20.1 25.1 12.2-0.4 22.9 8.1 25.1 20.1-0.4-12.2 8.1-22.9 20.1-25.1-12.1 0.4-22.8-8.2-25.1-20.1z"/>
			<path class="s0" d="m276.7 235.8c0.2 6.6-4.4 12.4-10.9 13.6 6.6-0.2 12.4 4.4 13.6 10.9-0.2-6.6 4.4-12.4 10.9-13.6-6.6 0.2-12.3-4.4-13.6-10.9z"/>
			<path class="s0" d="m239.6 98c0.3 7.6-5.1 14.3-12.6 15.7 7.6-0.3 14.3 5.1 15.7 12.6-0.3-7.6 5.1-14.3 12.6-15.7-7.6 0.3-14.3-5.1-15.7-12.6z"/>
			<g>
				<path class="s1" d="m173.5 52c-79.3 8.9-136.4 80.4-127.5 159.7 1.2 10.6 3.5 20.8 6.8 30.4 0.8 1.5 16.8 30.9 78.4 12.2 40.3-12.2 62.5-26.8 73.3-35.8q0.9-0.9 1.8-1.8l-6.6-6.1-26.8-1.5 14.7-15.7c4-4.3 9.8-6.5 15.6-5.9l9.2 0.9c26.3-46 68.4-40.8 68.4-40.8 0 0 0.4 1.9 0.5 5.1 0.3 7.3-0.5 21.5-9 36.7-5.5 9.8-14.2 20-27.8 29.1l0.6 3.7 0.9 5.4c0.9 5.8-0.9 11.7-4.9 16l-14.7 15.7-2-16.4-1.2-10.3-7-6.6c-0.7 0.7-1.5 1.4-2.2 2.1-38 36.5-76.8 65.6-109.8 84-38.7 21.5-69.6 28.2-82.3 14.9-0.9-1-1.7-2.1-2.5-3.2-5.5-9-4.5-23.3 2-41.2-5.8 12-10.1 23.1-12.7 33.2-4.5 17.5-3.7 31.6 3.2 40.8 0.6 0.8 1.3 1.7 2 2.4 18.6 19.3 66 6.3 122.4-29.2 21.3 8.5 45 12 69.4 9.2 79.3-8.9 136.4-80.4 127.5-159.7-8.9-79.1-80.4-136.2-159.7-127.3zm-49.8 126.9c-2.3-12-13-20.5-25.1-20.1 12-2.3 20.5-13 20.1-25.1 2.3 12 13 20.5 25.1 20.1-12 2.2-20.5 12.9-20.1 25.1zm119.1-52.6c-1.4-7.5-8.1-12.8-15.7-12.6 7.5-1.4 12.8-8.1 12.6-15.7 1.4 7.5 8.1 12.8 15.7 12.6-7.6 1.4-12.9 8.1-12.6 15.7zm36.7 134c-1.2-6.5-7-11.1-13.6-10.9 6.5-1.2 11.1-7 10.9-13.6 1.2 6.5 7 11.1 13.6 10.9-6.6 1.2-11.2 7-10.9 13.6z"/>
				<path class="s2" d="m338.3 302c0.4 10.8-7.2 20.3-17.8 22.3 10.8-0.4 20.3 7.2 22.3 17.8-0.4-10.8 7.2-20.3 17.8-22.3-10.8 0.3-20.3-7.2-22.3-17.8z"/>
				<path class="s3" d="m218 33.4c-0.3-9 6-16.9 14.8-18.6-9 0.3-16.9-6-18.6-14.8 0.3 9-6 16.9-14.8 18.6 9-0.4 16.9 5.9 18.6 14.8z"/>
				<path class="s4" d="m21.1 260.1c-0.4-9.9 6.6-18.6 16.3-20.4-9.9 0.4-18.6-6.6-20.4-16.3 0.4 9.9-6.6 18.6-16.3 20.4 9.9-0.4 18.6 6.5 20.4 16.3z"/>
			</g>
			<path class="s5" d="m254.7 183.9c-0.5-5-4.7-9-9.9-9-5.5 0-9.9 4.4-9.9 9.9 0 2.9 1.2 5.4 3.2 7.3 1.8 1.7 4.1 2.7 6.8 2.7h0.2c3.3-0.1 6.3-1.8 8-4.3 1.1-1.6 1.7-3.5 1.7-5.6 0-0.4-0.1-0.7-0.1-1z"/>
		</g>
		<g>
			<path class="s6" d="m282.7 85c-29.3-24.6-68.2-37.7-109.2-33.1-74.9 8.4-129.9 72.6-128.3 146.5 48.2-1.7 204.9-14.9 237.5-113.4zm-159 93.7c-2.3-12-13-20.5-25.1-20.1 12-2.3 20.5-13 20.1-25.1 2.3 12 13 20.5 25.1 20.1-12 2.3-20.5 13-20.1 25.1zm119.1-52.5c-1.4-7.5-8.1-12.8-15.7-12.6 7.5-1.4 12.8-8.1 12.6-15.7 1.4 7.5 8.1 12.8 15.7 12.6-7.6 1.4-12.9 8.1-12.6 15.7z"/>
			<path class="s7" d="m205.8 339.1c79.3-8.9 136.4-80.4 127.5-159.7-3.2-28.4-14.5-54-31.2-74.7 7.8 54.6-4.3 99.5-23.9 135 2.4 4.3 7 7.1 12.2 6.9-6.5 1.2-11.1 7-10.9 13.6-0.8-4.4-3.8-7.9-7.7-9.7-30.8 49.2-74.9 78.5-93.3 89.1 9 0.6 18.1 0.5 27.3-0.5z"/>
		</g>
	</g>
</svg>